<?xml version="1.0" standalone="no"?>
<!DOCTYPE svg PUBLIC "-//W3C//DTD SVG 20010904//EN"
 "http://www.w3.org/TR/2001/REC-SVG-20010904/DTD/svg10.dtd">
<svg version="1.0" xmlns="http://www.w3.org/2000/svg"
 width="853.000000pt" height="853.000000pt" viewBox="0 0 853.000000 853.000000"
 preserveAspectRatio="xMidYMid meet">
<metadata>
Created by potrace 1.11, written by Peter Selinger 2001-2013
</metadata>
<g transform="translate(0.000000,853.000000) scale(0.100000,-0.100000)"
fill="#000000" stroke="none">
<path d="M8089 7727 c-31 -14 -72 -45 -142 -108 -60 -53 -247 -196 -294 -225
-61 -37 -149 -99 -201 -141 -30 -24 -118 -86 -197 -139 -124 -83 -149 -96
-189 -99 -26 -1 -52 -7 -59 -14 -8 -8 -8 -11 1 -11 10 0 10 -3 1 -13 -11 -12
-22 -13 -88 -9 l-24 2 27 21 c16 13 33 18 46 14 16 -5 20 -2 20 14 0 12 -5 21
-11 21 -6 0 -9 9 -6 20 4 16 2 18 -12 11 -10 -6 -23 -6 -31 -1 -11 7 -12 14
-2 35 7 14 12 28 12 30 0 11 -28 4 -39 -9 -7 -8 -21 -12 -31 -9 -11 3 -27 0
-35 -7 -13 -11 -16 -8 -21 19 -4 17 -11 31 -16 31 -5 0 -6 5 -3 10 3 6 -3 10
-14 10 -22 0 -29 16 -10 22 8 3 2 24 -16 61 -26 52 -45 72 -45 47 0 -5 5 -10
11 -10 5 0 7 -5 4 -10 -5 -8 -11 -8 -19 -1 -9 7 -16 7 -24 -1 -15 -15 -16 -32
-1 -23 5 4 21 4 34 1 21 -5 23 -11 20 -41 -3 -19 -1 -35 3 -35 4 0 16 -13 25
-30 10 -16 15 -30 11 -30 -3 0 -1 -7 6 -15 10 -12 10 -15 0 -15 -7 0 -19 8
-26 18 -12 15 -13 14 -14 -10 0 -16 -3 -28 -7 -29 -5 0 -16 -2 -25 -4 -10 -2
-18 3 -18 10 0 8 -10 15 -22 17 -14 2 -22 9 -20 19 1 9 -7 24 -18 34 -20 19
-29 8 -9 -12 8 -8 8 -13 0 -17 -6 -4 -11 -2 -11 3 0 17 -58 13 -85 -5 -23 -15
-24 -15 -31 10 -3 14 -10 26 -14 26 -15 0 -20 31 -9 52 7 13 17 18 30 15 20
-6 23 0 10 21 -9 15 -37 18 -68 8 -27 -9 -31 8 -6 23 12 6 16 20 15 46 -2 21
4 48 13 61 17 27 19 34 5 34 -14 0 -50 -42 -50 -58 0 -8 -9 -27 -21 -43 -15
-21 -26 -28 -40 -24 -14 5 -19 1 -19 -14 0 -16 -6 -20 -22 -18 -20 2 -23 -2
-22 -31 1 -25 -2 -32 -14 -30 -11 2 -16 16 -18 47 -1 24 -8 48 -16 53 -9 6 -6
7 9 3 20 -6 22 -2 25 72 2 43 2 80 0 83 -3 4 -19 -17 -25 -35 -2 -5 -15 -1
-28 10 l-24 20 18 -21 c22 -26 24 -73 3 -55 -12 10 -18 7 -31 -18 -9 -18 -11
-31 -5 -31 6 0 15 -12 21 -27 7 -20 6 -30 -5 -41 -22 -22 -39 -4 -33 34 5 32
-3 51 -17 37 -3 -4 -21 -12 -40 -18 -29 -10 -35 -9 -45 7 -6 10 -9 23 -5 29 3
6 -4 21 -16 34 -21 22 -22 31 -18 109 4 62 2 90 -8 103 -11 16 -13 9 -10 -44
3 -68 -7 -99 -24 -73 -8 12 -10 11 -10 -7 0 -16 4 -21 15 -17 8 4 15 1 15 -5
0 -6 -6 -11 -14 -11 -8 0 -16 -6 -19 -12 -3 -10 -7 -10 -17 -1 -7 6 -19 9 -27
6 -12 -5 -14 -1 -9 14 4 14 1 23 -9 27 -19 7 -20 32 -1 43 9 5 12 18 9 36 -5
26 -6 26 -20 10 -13 -17 -14 -17 -10 2 4 23 -19 75 -33 75 -6 0 -11 -20 -11
-45 -1 -25 -3 -49 -4 -55 -1 -5 -3 -15 -4 -21 0 -5 -6 -7 -11 -4 -6 4 -17 1
-25 -5 -11 -9 -17 -7 -27 9 -7 12 -18 21 -24 21 -16 0 -26 -28 -13 -35 5 -4 7
-11 3 -16 -3 -5 -9 -7 -14 -4 -4 3 -11 -6 -14 -20 -6 -25 -30 -34 -41 -15 -4
6 -1 18 6 26 6 8 10 16 8 17 -39 28 -56 34 -56 21 0 -8 6 -14 14 -14 8 0 13
-11 12 -27 0 -16 -3 -23 -5 -16 -3 7 -11 10 -19 7 -7 -3 -30 2 -51 12 -28 13
-39 15 -42 6 -11 -35 -132 -51 -167 -22 -7 6 -26 7 -42 4 -16 -3 -46 -1 -66 4
-29 8 -35 7 -30 -4 3 -8 10 -14 16 -14 6 0 8 -2 5 -5 -2 -3 -19 0 -37 6 -26 9
-35 9 -41 -1 -5 -8 -15 -10 -26 -5 -11 5 -25 7 -31 6 -7 -1 -13 2 -13 8 0 5
-8 7 -19 4 -10 -3 -22 0 -25 6 -4 5 -13 8 -20 5 -7 -3 -30 4 -50 15 -44 25
-46 25 -46 6 0 -8 5 -15 11 -15 6 0 9 -6 6 -12 -2 -7 0 -21 5 -32 12 -23 -4
-36 -44 -36 -16 0 -28 -4 -28 -10 0 -5 -11 -10 -24 -10 -14 0 -28 -5 -31 -11
-4 -5 -17 -9 -28 -8 -41 3 -48 -1 -43 -19 5 -14 -3 -20 -37 -29 -51 -14 -128
-25 -182 -27 -22 0 -42 -4 -45 -8 -3 -4 -19 -4 -35 0 -23 7 -32 18 -45 53 -15
43 -19 49 -40 49 -5 0 -10 7 -10 16 0 8 -4 12 -10 9 -5 -3 -7 -18 -4 -33 6
-29 -20 -102 -36 -102 -5 0 -7 -7 -4 -15 4 -8 2 -15 -3 -15 -5 0 -10 -7 -10
-15 0 -8 4 -15 9 -15 5 0 3 -6 -4 -14 -7 -8 -15 -14 -18 -14 -37 2 -48 -4 -43
-21 4 -14 -1 -20 -18 -23 -12 -2 -24 -8 -26 -14 -4 -13 44 -7 53 7 7 12 24 11
24 -1 0 -5 -5 -10 -10 -10 -6 0 -21 -7 -34 -16 -21 -13 -23 -20 -16 -45 6 -20
5 -27 -2 -23 -6 4 -21 8 -34 10 -12 1 -36 5 -53 9 -20 4 -31 3 -31 -4 0 -6 4
-11 8 -11 5 0 17 -7 28 -15 18 -15 18 -16 -6 -14 -44 2 -50 -1 -50 -22 0 -18
2 -20 16 -8 17 14 54 20 54 8 0 -9 -58 -39 -75 -39 -7 0 -25 -7 -41 -14 -15
-8 -32 -12 -38 -8 -6 4 3 10 19 14 27 6 26 7 -5 3 -42 -6 -51 -8 -67 -18 -7
-5 -13 -6 -13 -2 0 3 -9 1 -20 -5 -28 -15 -25 -28 8 -33 26 -4 25 -4 -5 -6
-17 0 -35 -6 -39 -12 -3 -6 -15 -9 -25 -6 -10 3 -22 0 -26 -5 -3 -7 -1 -8 5
-4 7 4 12 3 12 -2 0 -5 -12 -12 -27 -16 -16 -3 -45 -21 -66 -40 -21 -19 -47
-38 -58 -41 -10 -4 -17 -10 -14 -14 2 -5 -4 -16 -15 -26 -13 -11 -18 -25 -14
-37 3 -10 1 -18 -5 -18 -6 0 -11 6 -11 13 0 8 -3 8 -9 -2 -8 -12 -14 -13 -35
-3 -14 6 -26 7 -26 2 0 -5 -12 -15 -27 -22 -16 -7 -29 -23 -31 -36 -4 -25 13
-30 22 -6 3 8 11 12 17 8 13 -8 -27 -43 -50 -44 -8 0 -11 -3 -8 -6 10 -10 -39
-44 -62 -44 -12 0 -21 -4 -21 -10 0 -5 6 -10 14 -10 9 0 12 -7 9 -21 -3 -11
-11 -18 -18 -15 -8 3 -11 -2 -8 -15 3 -11 0 -19 -8 -19 -7 0 -9 -3 -6 -6 4 -4
-5 -17 -19 -29 -15 -13 -24 -27 -20 -33 3 -6 2 -22 -4 -36 -7 -21 -6 -26 5
-26 36 0 8 -28 -94 -93 -19 -12 -46 -30 -60 -39 -14 -10 -66 -38 -116 -63 -49
-25 -126 -67 -170 -95 -86 -53 -215 -136 -251 -160 -188 -128 -422 -265 -654
-382 -107 -54 -215 -110 -240 -124 -31 -17 -70 -28 -125 -34 -114 -12 -245
-63 -347 -133 -14 -9 -24 -8 -50 6 -51 26 -134 40 -213 35 -70 -5 -75 -7 -189
-82 -76 -50 -125 -90 -142 -115 -39 -60 -74 -175 -85 -285 -14 -137 -21 -165
-69 -281 -37 -87 -55 -142 -77 -232 -3 -12 -26 -47 -52 -76 -119 -136 -168
-282 -127 -378 23 -56 106 -123 189 -156 61 -24 86 -28 167 -28 52 0 147 8
210 17 105 15 134 16 315 3 110 -8 232 -15 272 -15 l72 0 34 -42 c77 -98 104
-183 93 -294 -13 -127 -32 -145 -266 -255 -369 -173 -486 -295 -425 -443 19
-45 149 -176 175 -176 4 0 40 -18 81 -41 96 -53 192 -90 326 -129 59 -17 131
-40 158 -52 135 -57 514 8 885 152 41 16 109 36 150 44 66 13 152 32 300 66
57 13 295 43 335 43 33 -1 198 -25 283 -42 70 -14 132 -42 195 -88 69 -50 72
-55 103 -148 25 -75 27 -95 32 -298 4 -188 2 -229 -14 -290 -12 -48 -17 -103
-16 -162 1 -49 -3 -131 -9 -182 -11 -86 -10 -95 10 -138 11 -24 21 -50 21 -55
0 -19 38 -85 62 -107 12 -12 56 -38 96 -58 l73 -38 142 2 c203 2 343 11 412
26 33 8 76 17 95 20 19 4 64 15 100 25 36 11 101 24 145 30 44 6 123 19 175
30 52 10 118 22 145 26 28 4 52 8 55 9 3 0 37 5 75 9 39 4 115 17 170 28 55
11 109 22 120 23 46 8 292 65 320 74 95 32 298 80 362 86 47 3 171 31 283 62
30 8 96 25 145 38 50 13 115 35 146 48 32 14 94 33 138 41 45 9 104 25 131 36
28 11 74 29 103 41 28 11 61 24 72 29 11 5 58 23 105 41 67 26 96 44 138 84
59 58 61 71 38 177 -7 35 -19 101 -25 148 -7 47 -16 114 -22 150 -5 36 -16
135 -24 220 -8 85 -16 164 -19 175 -2 11 -7 61 -11 110 -3 50 -11 115 -16 145
-6 30 -14 89 -19 130 -5 41 -15 129 -24 195 -8 66 -17 149 -20 185 -3 36 -21
144 -41 240 -19 96 -47 240 -61 320 -13 80 -38 213 -55 296 -31 158 -32 194
-5 258 9 21 16 47 16 58 0 14 5 18 15 14 11 -4 15 2 15 20 0 21 -4 24 -20 19
-14 -4 -20 -2 -20 8 0 8 -7 18 -16 21 -8 3 -12 11 -8 17 5 8 10 6 16 -5 11
-20 29 -21 22 -1 -5 11 -2 13 11 9 9 -4 21 -17 26 -30 4 -13 13 -24 19 -24 6
0 8 5 5 10 -3 6 3 10 14 10 11 0 22 4 26 9 6 11 -33 51 -49 51 -6 0 -22 9 -35
19 l-24 18 41 7 c40 6 68 26 38 26 -9 0 -16 6 -16 14 0 8 -6 16 -12 19 -7 2 4
7 25 11 26 5 35 11 30 19 -15 24 -14 57 2 57 8 0 15 -5 15 -11 0 -5 5 -7 10
-4 8 5 7 12 -2 22 -7 9 -11 26 -10 39 3 18 0 22 -12 18 -11 -4 -16 -1 -16 11
0 10 5 14 13 9 9 -5 9 -4 0 6 -9 10 -8 16 3 27 8 8 14 24 14 37 0 12 5 27 12
34 9 9 9 12 0 12 -7 0 -12 4 -12 9 0 15 71 96 91 103 25 10 24 45 -1 53 -11 4
-19 14 -18 22 2 9 -3 18 -11 21 -10 3 -12 -1 -8 -17 3 -11 1 -24 -4 -27 -17
-10 -9 -24 13 -24 15 0 19 -3 11 -11 -14 -14 -53 -2 -87 28 -29 24 -29 26 -11
39 10 8 22 14 27 14 4 0 8 5 8 11 0 6 -9 8 -21 4 -19 -7 -21 -4 -15 20 4 16 3
24 -3 21 -9 -6 -22 30 -18 49 2 10 7 12 45 14 32 2 27 21 -5 21 -16 1 -43 14
-63 30 -19 17 -40 30 -46 30 -12 0 -30 37 -26 53 1 5 -8 7 -20 5 -36 -5 -37
31 0 38 24 5 28 10 24 30 -2 14 0 24 7 24 6 0 11 5 11 11 0 6 -8 9 -17 7 -11
-2 -17 -11 -15 -21 2 -9 -3 -17 -10 -18 -31 -3 -64 4 -70 15 -5 6 -8 2 -8 -11
0 -18 -6 -23 -25 -23 -14 0 -25 5 -25 10 0 6 5 10 10 10 6 0 10 9 10 20 0 11
-6 20 -14 20 -21 0 -31 21 -15 31 7 4 10 11 7 15 -4 3 -14 -1 -23 -10 -20 -19
-27 -20 -43 -4 -17 17 -15 31 3 24 9 -3 15 0 15 10 0 8 -9 18 -21 22 -21 8
-21 8 3 32 14 12 37 24 53 26 36 4 58 24 27 24 -12 0 -22 -5 -22 -11 0 -5 -4
-7 -10 -4 -21 13 -12 21 90 78 22 13 36 15 38 8 8 -24 22 -9 22 23 0 25 5 35
20 39 11 3 20 10 20 16 0 15 -27 14 -34 -1 -3 -7 -3 -3 0 10 3 12 1 22 -5 22
-6 0 -13 11 -17 25 -3 14 -22 35 -43 47 -20 12 -40 28 -44 35 -4 7 -15 13 -22
13 -8 0 -15 4 -15 10 0 6 16 8 38 5 l37 -5 -34 15 c-20 9 -38 12 -43 7 -11
-11 -68 36 -68 55 0 7 -7 13 -15 13 -8 0 -15 4 -15 8 0 4 18 8 39 7 35 0 39
-3 38 -24 -1 -13 4 -26 11 -28 6 -3 12 2 12 11 0 9 5 16 10 16 6 0 10 -5 10
-10 0 -6 11 -15 25 -20 14 -5 25 -14 25 -20 0 -5 11 -12 25 -16 14 -3 25 -10
25 -14 0 -5 9 -6 20 -3 11 3 26 0 34 -6 8 -7 20 -10 27 -9 8 2 13 -4 11 -12
-3 -12 -1 -13 10 -2 20 20 15 45 -12 64 -16 12 -20 18 -10 18 12 1 11 3 -3 11
-9 6 -15 14 -12 20 4 5 -3 10 -14 10 -12 1 -25 3 -31 4 -5 1 -13 3 -17 4 -5 1
-1 6 7 11 13 9 13 10 0 10 -18 0 -43 37 -35 50 3 5 35 6 71 3 61 -6 66 -5 62
13 -2 10 -10 18 -18 16 -8 -2 -25 -1 -38 3 -20 5 -23 10 -17 32 5 23 4 25 -20
20 -17 -3 -28 0 -32 9 -3 8 -11 14 -19 14 -18 0 -18 15 2 34 17 17 10 61 -8
50 -6 -4 -9 -1 -6 7 2 7 47 44 99 82 147 107 299 263 379 391 70 111 133 267
171 421 5 22 29 81 53 130 24 50 46 108 50 130 4 22 12 61 18 87 9 37 9 50 -1
62 -16 19 -27 19 -62 3z m-3769 -561 c0 -3 -4 -8 -10 -11 -5 -3 -10 -1 -10 4
0 6 5 11 10 11 6 0 10 -2 10 -4z m2580 -71 c-6 -8 -9 -19 -5 -25 8 -12 -15
-13 -34 -1 -11 7 -11 11 -1 23 8 8 22 15 33 15 15 2 16 -1 7 -12z m550 -805
c0 -5 -4 -10 -10 -10 -5 0 -10 5 -10 10 0 6 5 10 10 10 6 0 10 -4 10 -10z
m-150 -720 c0 -5 -4 -10 -10 -10 -5 0 -10 5 -10 10 0 6 5 10 10 10 6 0 10 -4
10 -10z m290 -445 c4 2 15 -4 25 -15 17 -19 17 -20 -6 -39 -36 -30 -54 -26
-57 10 -3 31 19 72 26 50 2 -6 7 -9 12 -6z m-5 -165 c-3 -5 -12 -10 -18 -10
-7 0 -6 4 3 10 19 12 23 12 15 0z"/>
<path d="M6296 7631 c-9 -14 -20 -137 -12 -130 7 7 11 24 20 97 5 41 3 51 -8
33z"/>
<path d="M5955 7610 c-3 -5 -1 -10 4 -10 6 0 11 5 11 10 0 6 -2 10 -4 10 -3 0
-8 -4 -11 -10z"/>
<path d="M6235 7581 c-3 -5 -1 -12 5 -16 5 -3 10 1 10 9 0 18 -6 21 -15 7z"/>
<path d="M5685 7570 c-3 -5 1 -10 9 -10 9 0 16 -5 16 -12 0 -6 2 -9 5 -6 7 7
-5 38 -15 38 -5 0 -12 -4 -15 -10z"/>
<path d="M6151 7423 c0 -17 5 -34 12 -36 10 -4 10 -6 0 -6 -14 -1 -18 -31 -4
-31 12 0 21 36 11 47 -5 4 -10 19 -13 33 -4 21 -4 21 -6 -7z"/>
<path d="M6090 7356 c0 -2 7 -9 15 -16 13 -11 14 -10 9 4 -5 14 -24 23 -24 12z"/>
<path d="M4299 7293 c-13 -16 -12 -17 4 -4 9 7 17 15 17 17 0 8 -8 3 -21 -13z"/>
<path d="M6625 7299 c-12 -18 3 -22 20 -5 14 14 14 16 1 16 -8 0 -18 -5 -21
-11z"/>
<path d="M6187 7273 c3 -7 6 -13 8 -13 2 0 5 6 8 13 3 8 -1 14 -8 14 -7 0 -11
-6 -8 -14z"/>
<path d="M6690 7240 c0 -5 5 -10 11 -10 5 0 7 5 4 10 -3 6 -8 10 -11 10 -2 0
-4 -4 -4 -10z"/>
<path d="M6570 7230 c0 -5 9 -10 21 -10 11 0 17 5 14 10 -3 6 -13 10 -21 10
-8 0 -14 -4 -14 -10z"/>
<path d="M4010 7020 c-8 -5 -12 -11 -10 -14 3 -2 14 2 24 10 22 15 10 19 -14
4z"/>
<path d="M7575 6260 l-20 -9 20 0 c11 0 27 4 35 9 13 9 13 10 0 9 -8 0 -24 -4
-35 -9z"/>
<path d="M7555 6210 c3 -5 8 -10 11 -10 2 0 4 5 4 10 0 6 -5 10 -11 10 -5 0
-7 -4 -4 -10z"/>
<path d="M7494 5995 c-9 -21 -2 -26 13 -10 8 9 9 16 3 20 -6 3 -13 -1 -16 -10z"/>
<path d="M7470 5930 c0 -5 5 -10 11 -10 5 0 7 5 4 10 -3 6 -8 10 -11 10 -2 0
-4 -4 -4 -10z"/>
<path d="M7500 5870 c0 -5 5 -10 11 -10 5 0 7 5 4 10 -3 6 -8 10 -11 10 -2 0
-4 -4 -4 -10z"/>
<path d="M7460 5831 c0 -5 7 -15 17 -22 15 -13 15 -12 4 9 -12 23 -21 28 -21
13z"/>
<path d="M7382 5740 c0 -14 2 -19 5 -12 2 6 2 18 0 25 -3 6 -5 1 -5 -13z"/>
<path d="M7290 5650 c0 -5 5 -10 11 -10 5 0 7 5 4 10 -3 6 -8 10 -11 10 -2 0
-4 -4 -4 -10z"/>
<path d="M7640 5340 c0 -5 4 -10 9 -10 6 0 13 5 16 10 3 6 -1 10 -9 10 -9 0
-16 -4 -16 -10z"/>
</g>
</svg>
